<?xml version="1.0" encoding="UTF-8"?>
<svg id="Layer_1" xmlns="http://www.w3.org/2000/svg" version="1.1" viewBox="0 0 1920 1080">
  <!-- Generator: Adobe Illustrator 30.1.0, SVG Export Plug-In . SVG Version: 2.1.1 Build 136)  -->
  <defs>
    <style>
      .st0 {
        fill: #082a44;
      }

      .st1, .st2 {
        fill: #f0b61b;
      }

      .st2 {
        font-family: TwCenMT-Bold, 'Tw Cen MT';
        font-size: 73.7px;
        font-weight: 700;
        letter-spacing: .07em;
      }
    </style>
  </defs>
  <g>
    <path class="st0" d="M334.83,422.98h-146.76s-18.04,3.72-26.12,32.95c-6.91,24.95-46.99,169.87-58.46,211.38-55.83-29.17-93.95-87.66-93.95-155.04,0-96.58,78.32-174.87,174.9-174.87,63.63,0,119.35,33.98,149.95,84.84.14.25.31.5.45.76Z"/>
    <path class="st1" d="M354.47,553.24c.2-1.09.36-2.18.5-3.22-12.06,59.8-53.82,78.46-69.73,83.49-3.55,1.09-7.22,1.62-10.94,1.57l-47.61-.45-12.11,49.9c-9.79,1.71-19.86,2.6-30.15,2.6-9.06,0-17.96-.7-26.63-2.01l27.89-104.28h80.72c7.61,0,14.54-3.1,19.52-8.08,5.01-5.01,8.11-11.92,8.11-19.52,0-14.27-11.58-25.84-25.84-25.84h-68.22l13.93-52.11,97.23-.7s52.98,11.19,43.86,75.33c.36-1.79.76-3.44,1.23-4.92-.5,2.77-1.09,5.54-1.76,8.25Z"/>
  </g>
  <g>
    <path class="st0" d="M518.01,531.83c0-31.42,10.39-57.35,31.17-77.81,20.78-20.46,45.42-30.69,73.92-30.69,31.52,0,57.6,10.28,78.22,30.85,20.62,20.56,30.93,46.56,30.93,77.97s-10.2,57.11-30.61,77.73c-20.4,20.62-46.1,30.93-77.08,30.93s-56.49-10.26-76.52-30.77c-20.03-20.51-30.04-46.58-30.04-78.22ZM625.21,465.76c-17.81-.32-32.17,5.83-43.08,18.46-10.91,12.63-16.36,28.93-16.36,48.91,0,18.89,5.56,34.55,16.68,46.96,11.12,12.42,25.16,18.62,42.1,18.62,17.81,0,32.2-6.13,43.16-18.38,10.96-12.25,16.44-28.42,16.44-48.5s-5.37-35.63-16.11-47.61c-10.74-11.98-25.02-18.14-42.83-18.46Z"/>
    <path class="st0" d="M755.72,425.76h70.04c21.29,0,38.13,5.61,50.5,16.83,12.38,11.22,18.57,26.38,18.57,45.48,0,10.9-2.84,22.23-8.52,33.99-5.68,11.76-16.14,20.99-31.39,27.68l59.5,88.64h-52.66l-55.03-82.26h-5.18v82.26h-45.83v-212.62ZM801.87,463.65v55.38h9.91c23.95,0,35.92-9.77,35.92-29.31,0-7.99-3.11-14.33-9.34-19.03-6.23-4.7-14.87-7.04-25.92-7.04h-10.57Z"/>
    <path class="st0" d="M950.56,425.76h54.45l39.83,127.44,39.85-127.44h52.52l27.38,212.62h-43.66l-18.77-149.63-46.79,149.63h-20.81l-48.02-150.93-17.72,150.93h-44.38l26.11-212.62Z"/>
    <path class="st0" d="M1257.52,425.76h35.5l86.62,212.62h-46.12l-17.02-41.78h-81.6l-16.67,41.78h-45.88l85.16-212.62ZM1275.27,495.39l-25,62.67h50.53l-25.53-62.67Z"/>
    <path class="st0" d="M1398.58,425.76h112.12c19.54,0,35.3,5.7,47.29,17.08,11.99,11.39,17.97,26.37,17.97,44.94,0,12.2-2.94,23.78-8.82,34.74-5.89,10.96-14.76,19.14-26.64,24.53-11.88,5.4-22.03,8.2-30.44,8.42l-65.98.65v82.26h-45.5v-212.62ZM1443.43,463.97v54.41h57.23c7.67,0,14.22-2.75,19.68-8.26,5.45-5.51,8.18-12.04,8.18-19.59,0-8.64-3.07-15.33-9.23-20.08-6.15-4.75-14.89-7.12-26.23-7.12l-49.62.65Z"/>
    <path class="st0" d="M1628.4,425.76h35.5l86.62,212.62h-46.12l-17.02-41.78h-81.6l-16.67,41.78h-45.88l85.16-212.62ZM1646.15,495.39l-25,62.67h50.53l-25.53-62.67Z"/>
    <path class="st0" d="M1910.83,437.1v51.82c-23-13.82-43.13-20.73-60.41-20.73s-31.09,5.94-41.45,17.81c-10.37,11.88-15.54,27.85-15.54,47.93,0,19,5.45,34.2,16.35,45.58,10.9,11.39,25.48,17.09,43.72,17.09,15.97,0,35.09-6.42,57.33-19.27v51.5c-24.94,8.31-45.72,12.47-62.35,12.47-28.61,0-52.9-10.5-72.87-31.5-19.98-21-29.96-46.61-29.96-76.84s10.17-56.81,30.52-78.13c20.35-21.32,45.1-31.98,74.25-31.98,18.79,0,38.92,4.75,60.41,14.25Z"/>
    <path class="st0" d="M383.07,423.33h134.94v42.07h-89.44v44.39h74.17v42.4h-73.85v88.62h-45.83v-217.48Z"/>
  </g>
  <text class="st2" transform="translate(545.63 724.24)"><tspan x="0" y="0">A Division Of The Five Star Group</tspan></text>
</svg>